<svg width="254" height="254" viewBox="0 0 254 254" fill="none" xmlns="http://www.w3.org/2000/svg">
<rect width="254" height="254" fill="white"/>
<g clip-path="url(#clip0_701_13931)">
<path d="M254 0H0V254H254V0Z" fill="white"/>
<path d="M127 25C70.7354 25 25 70.5709 25 126.835C25 183.1 70.7354 228.671 127 228.671C183.264 228.671 229 183.1 229 126.835C229.164 70.5709 183.429 25 127 25ZM45.2354 130.784C45.4 132.758 45.5645 134.567 45.729 136.377C45.4 134.567 45.2354 132.758 45.2354 130.784ZM45.729 137.364C45.8935 139.174 46.2225 140.984 46.5516 142.793C46.2225 140.984 46.058 139.174 45.729 137.364ZM127 209.587C87.187 209.587 53.9548 180.796 46.5516 142.793L101.664 142.958L126.671 87.3515L162.535 174.709L186.061 132.429H208.764C208.929 130.619 208.929 128.809 208.929 126.835C208.929 124.697 208.764 122.558 208.6 120.419H178.822L164.016 147.071L127.329 56.9161L94.0966 130.948L45.2354 130.784C45.2354 129.468 45.0709 128.151 45.0709 126.671C45.0709 80.9354 81.7579 43.9193 127 43.9193C172.242 43.9193 208.929 80.9354 208.929 126.835C209.093 172.571 172.406 209.587 127 209.587Z" fill="#FF7300"/>
</g>
<defs>
<clipPath id="clip0_701_13931">
<rect width="254" height="253.181" fill="white"/>
</clipPath>
</defs>
</svg>
