<?xml version="1.0" encoding="UTF-8"?><svg id="uuid-012db178-9914-44b6-bf44-574ed7d9ac1a" xmlns="http://www.w3.org/2000/svg" viewBox="0 0 30 30"><defs><style>.uuid-352ca932-e2a9-4ce1-ac4e-62accb390e6f{fill:#e6e6e6;}.uuid-29cf3239-fcab-4e51-ab09-7b7c5a24d8eb{fill:#b3b3b3;}</style></defs><rect class="uuid-352ca932-e2a9-4ce1-ac4e-62accb390e6f" width="30" height="30"/><path class="uuid-29cf3239-fcab-4e51-ab09-7b7c5a24d8eb" d="M28.69,30c-.08-.4-.29-.79-.38-1.18-.05-.23-.2-.6-.29-.78-.41-.77-1.31-2.02-2.31-2.6-.5-.29-1.07-.52-1.63-.74-1.51-.49-3.06-1.24-4.4-2.31-1-.97-1.49-2.24-1.38-3.47,.01-.14,.03-.27,.06-.41,.05-.71,.35-1.3,.73-1.85,.03,.02,.06,.03,.1,.01,.06-.02,.09-.08,.14-.12,.04-.03,.09-.06,.13-.09,.04-.03,.08-.07,.11-.1,.03-.03,.06-.06,.09-.1,.04-.04,.11-.07,.14-.11,.01-.01,.02-.03,.03-.05,.02-.03,.05-.06,.08-.1,.05-.06,.07-.11,.07-.18,0-.03,0-.06,0-.09,0-.02,.02-.03,.02-.05,0-.03,0-.06,.01-.09,0-.04,.01-.05,.03-.09,.02-.03,.04-.07,.04-.1,0-.01,0-.03,0-.05,.11-.15,.22-.3,.31-.45,.02-.1,.02-.18,.06-.28,.02-.04,.02-.07,.03-.11,.04-.07,.07-.13,.11-.2,.03-.04,.06-.09,.08-.14,.02-.06,.06-.12,.06-.19,0-.07,0-.15,0-.22,0-.07,.01-.15-.01-.21-.02-.06-.09-.13-.15-.15-.03-.01-.05-.01-.09-.01-.04,0-.06-.02-.09-.02,0,0,0,0-.04,.02v.02c-.02-.06-.05-.1-.06-.17,0-.06,0-.13,0-.19,0-.07,.02-.12,.04-.19,.02-.06,0-.13,.01-.18,.89-2.52-.23-4.54-2.11-6.04-.44-.43-1.11-.32-1.56-.82-.26-.14-.53-.24-.81-.32-1.67-.46-3.6,.12-4.85,1.25-1.67,1.29-2.33,3.65-1.91,5.82,0,.06,0,.11,.02,.16,.01,.03,.03,.05,.04,.08,.01,.05,0,.09,.03,.14,.02,.03,.04,.05,.05,.08,.01,.04,.01,.06,.03,.09,.02,.04,.07,.07,.08,.12,.01,.05,0,.11,0,.16,0,.07,.02,.18,0,.24-.04,.1-.16,.15-.19,.25-.02,.07,0,.17,0,.24,0,.08-.01,.17,0,.25,0,.06,.03,.1,.06,.15,.06,.08,.1,.17,.14,.26,.04,.09,.07,.18,.11,.27,.02,.05,.01,.08,.02,.13,.01,.05,.03,.05,.05,.08,.02,.04,.03,.06,.05,.1,.02,.04,.02,.08,.03,.11,.01,.04,.05,.07,.07,.11,.02,.05,.02,.08,.02,.13,0,.06,.03,.09,.06,.15,.03,.06,.02,.12,.05,.18,0,.01,.03,.02,.03,.03,0,.02,0,.04,0,.06,.02,.04,.06,.08,.08,.12,.02,.04,.05,.08,.08,.11,.07,.08,.12,.16,.19,.24,.04,.05,.07,.12,.1,.16,.03,.03,.09,.07,.13,.09,.04,.03,.12,.05,.15,.1,.04,.05,.07,.16,.1,.22,.44,.93,1.22,1.9,1.11,3.08-.33,2.47-3.11,3.43-5.38,3.91-.28,.11-.55,.24-.81,.37-1.3,.68-2.36,1.67-3.14,2.88-.18,.28-.34,.57-.49,.87-.23,.55-.38,1.11-.5,1.72H28.69Z"/></svg>